<?xml version="1.0" encoding="UTF-8" standalone="no"?>
<!DOCTYPE svg PUBLIC "-//W3C//DTD SVG 1.1//EN"
 "http://www.w3.org/Graphics/SVG/1.1/DTD/svg11.dtd">
<!-- Generated by graphviz version 2.40.1 (20161225.0304)
 -->
<!-- Title: montyhall Pages: 1 -->
<svg width="288pt" height="209pt"
 viewBox="0.00 0.00 288.00 209.48" xmlns="http://www.w3.org/2000/svg" xmlns:xlink="http://www.w3.org/1999/xlink">
<g id="graph0" class="graph" transform="scale(.5336 .5336) rotate(0) translate(4 388.5427)">
<title>montyhall</title>
<polygon fill="#ffffff" stroke="transparent" points="-4,4 -4,-388.5427 535.6817,-388.5427 535.6817,4 -4,4"/>
<!-- pick 1 -->
<g id="node1" class="node">
<title>pick 1</title>
<ellipse fill="none" stroke="#000000" cx="36.4971" cy="-144.2463" rx="32.4945" ry="32.4945"/>
<ellipse fill="none" stroke="#000000" cx="36.4971" cy="-144.2463" rx="36.4942" ry="36.4942"/>
<text text-anchor="middle" x="36.4971" y="-140.5463" font-family="Times,serif" font-size="14.00" fill="#000000">pick 1</text>
</g>
<!-- car 1 -->
<g id="node2" class="node">
<title>car 1</title>
<ellipse fill="none" stroke="#000000" cx="155.5917" cy="-245.2463" rx="28.6953" ry="28.6953"/>
<text text-anchor="middle" x="155.5917" y="-241.5463" font-family="Times,serif" font-size="14.00" fill="#000000">car 1</text>
</g>
<!-- pick 1&#45;&gt;car 1 -->
<g id="edge1" class="edge">
<title>pick 1&#45;&gt;car 1</title>
<path fill="none" stroke="#000000" d="M64.4195,-167.9263C82.8277,-183.5376 106.9162,-203.9663 125.7098,-219.9044"/>
<polygon fill="#000000" stroke="#000000" points="123.5175,-222.6344 133.408,-226.433 128.0451,-217.2957 123.5175,-222.6344"/>
<text text-anchor="middle" x="99.9942" y="-207.0463" font-family="Times,serif" font-size="14.00" fill="#000000">1/3</text>
</g>
<!-- car 2 -->
<g id="node3" class="node">
<title>car 2</title>
<ellipse fill="none" stroke="#000000" cx="155.5917" cy="-144.2463" rx="28.6953" ry="28.6953"/>
<text text-anchor="middle" x="155.5917" y="-140.5463" font-family="Times,serif" font-size="14.00" fill="#000000">car 2</text>
</g>
<!-- pick 1&#45;&gt;car 2 -->
<g id="edge2" class="edge">
<title>pick 1&#45;&gt;car 2</title>
<path fill="none" stroke="#000000" d="M73.2012,-144.2463C86.9258,-144.2463 102.5586,-144.2463 116.4916,-144.2463"/>
<polygon fill="#000000" stroke="#000000" points="116.7551,-147.7463 126.7551,-144.2463 116.7551,-140.7463 116.7551,-147.7463"/>
<text text-anchor="middle" x="99.9942" y="-148.0463" font-family="Times,serif" font-size="14.00" fill="#000000">1/3</text>
</g>
<!-- car 3 -->
<g id="node4" class="node">
<title>car 3</title>
<ellipse fill="none" stroke="#000000" cx="155.5917" cy="-62.2463" rx="28.6953" ry="28.6953"/>
<text text-anchor="middle" x="155.5917" y="-58.5463" font-family="Times,serif" font-size="14.00" fill="#000000">car 3</text>
</g>
<!-- pick 1&#45;&gt;car 3 -->
<g id="edge3" class="edge">
<title>pick 1&#45;&gt;car 3</title>
<path fill="none" stroke="#000000" d="M66.8579,-123.342C84.1513,-111.435 105.8081,-96.5237 123.3971,-84.4132"/>
<polygon fill="#000000" stroke="#000000" points="125.4163,-87.2723 131.6679,-78.7184 121.4466,-81.5068 125.4163,-87.2723"/>
<text text-anchor="middle" x="99.9942" y="-109.0463" font-family="Times,serif" font-size="14.00" fill="#000000">1/3</text>
</g>
<!-- monty 2 -->
<g id="node5" class="node">
<title>monty 2</title>
<ellipse fill="none" stroke="#000000" cx="280.4354" cy="-344.2463" rx="40.0939" ry="40.0939"/>
<text text-anchor="middle" x="280.4354" y="-340.5463" font-family="Times,serif" font-size="14.00" fill="#000000">monty 2</text>
</g>
<!-- car 1&#45;&gt;monty 2 -->
<g id="edge4" class="edge">
<title>car 1&#45;&gt;monty 2</title>
<path fill="none" stroke="#000000" d="M178.2,-263.1744C195.569,-276.9479 219.9964,-296.3186 240.6183,-312.6716"/>
<polygon fill="#000000" stroke="#000000" points="238.5939,-315.5332 248.604,-319.0042 242.9433,-310.0484 238.5939,-315.5332"/>
<text text-anchor="middle" x="211.1892" y="-298.0463" font-family="Times,serif" font-size="14.00" fill="#000000">1/2</text>
</g>
<!-- monty 3 -->
<g id="node6" class="node">
<title>monty 3</title>
<ellipse fill="none" stroke="#000000" cx="280.4354" cy="-245.2463" rx="40.0939" ry="40.0939"/>
<text text-anchor="middle" x="280.4354" y="-241.5463" font-family="Times,serif" font-size="14.00" fill="#000000">monty 3</text>
</g>
<!-- car 1&#45;&gt;monty 3 -->
<g id="edge5" class="edge">
<title>car 1&#45;&gt;monty 3</title>
<path fill="none" stroke="#000000" d="M184.2334,-245.2463C197.8156,-245.2463 214.4512,-245.2463 230.0455,-245.2463"/>
<polygon fill="#000000" stroke="#000000" points="230.1003,-248.7464 240.1002,-245.2463 230.1002,-241.7464 230.1003,-248.7464"/>
<text text-anchor="middle" x="211.1892" y="-249.0463" font-family="Times,serif" font-size="14.00" fill="#000000">1/2</text>
</g>
<!-- monty 3&#39; -->
<g id="node7" class="node">
<title>monty 3&#39;</title>
<ellipse fill="none" stroke="#000000" cx="280.4354" cy="-144.2463" rx="42.4939" ry="42.4939"/>
<text text-anchor="middle" x="280.4354" y="-140.5463" font-family="Times,serif" font-size="14.00" fill="#000000">monty 3&#39;</text>
</g>
<!-- car 2&#45;&gt;monty 3&#39; -->
<g id="edge6" class="edge">
<title>car 2&#45;&gt;monty 3&#39;</title>
<path fill="none" stroke="#000000" d="M184.2334,-144.2463C197.1013,-144.2463 212.71,-144.2463 227.5772,-144.2463"/>
<polygon fill="#000000" stroke="#000000" points="227.7087,-147.7464 237.7087,-144.2463 227.7086,-140.7464 227.7087,-147.7464"/>
<text text-anchor="middle" x="211.1892" y="-148.0463" font-family="Times,serif" font-size="14.00" fill="#000000">1</text>
</g>
<!-- monty 2&#39; -->
<g id="node8" class="node">
<title>monty 2&#39;</title>
<ellipse fill="none" stroke="#000000" cx="280.4354" cy="-42.2463" rx="42.4939" ry="42.4939"/>
<text text-anchor="middle" x="280.4354" y="-38.5463" font-family="Times,serif" font-size="14.00" fill="#000000">monty 2&#39;</text>
</g>
<!-- car 3&#45;&gt;monty 2&#39; -->
<g id="edge7" class="edge">
<title>car 3&#45;&gt;monty 2&#39;</title>
<path fill="none" stroke="#000000" d="M183.9207,-57.7079C197.1399,-55.5902 213.3018,-53.0011 228.5916,-50.5516"/>
<polygon fill="#000000" stroke="#000000" points="229.1531,-54.0064 238.4735,-48.9686 228.0457,-47.0945 229.1531,-54.0064"/>
<text text-anchor="middle" x="211.1892" y="-59.0463" font-family="Times,serif" font-size="14.00" fill="#000000">1</text>
</g>
<!-- if you change you get a goat -->
<g id="node9" class="node">
<title>if you change you get a goat</title>
<text text-anchor="middle" x="445.6817" y="-271.5463" font-family="Times,serif" font-size="14.00" fill="#000000">if you change you get a goat</text>
</g>
<!-- monty 2&#45;&gt;if you change you get a goat -->
<g id="edge8" class="edge">
<title>monty 2&#45;&gt;if you change you get a goat</title>
<path fill="none" stroke="#000000" stroke-dasharray="5,2" d="M317.9323,-328.5891C343.0714,-318.092 376.2504,-304.2379 402.4945,-293.2794"/>
</g>
<!-- monty 3&#45;&gt;if you change you get a goat -->
<g id="edge9" class="edge">
<title>monty 3&#45;&gt;if you change you get a goat</title>
<path fill="none" stroke="#000000" stroke-dasharray="5,2" d="M320.4369,-252.5084C332.3766,-254.676 345.9516,-257.1405 359.6516,-259.6277"/>
</g>
<!-- if you change you get a car -->
<g id="node10" class="node">
<title>if you change you get a car</title>
<text text-anchor="middle" x="445.6817" y="-90.5463" font-family="Times,serif" font-size="14.00" fill="#000000">if you change you get a car</text>
</g>
<!-- monty 3&#39;&#45;&gt;if you change you get a car -->
<g id="edge10" class="edge">
<title>monty 3&#39;&#45;&gt;if you change you get a car</title>
<path fill="none" stroke="#000000" stroke-dasharray="5,2" d="M321.2828,-131.8867C340.78,-125.9873 364.489,-118.8134 385.9583,-112.3173"/>
</g>
<!-- monty 2&#39;&#45;&gt;if you change you get a car -->
<g id="edge11" class="edge">
<title>monty 2&#39;&#45;&gt;if you change you get a car</title>
<path fill="none" stroke="#000000" stroke-dasharray="5,2" d="M320.8592,-54.9669C341.1155,-61.3412 365.9976,-69.1711 388.2018,-76.1584"/>
</g>
</g>
</svg>
